Coordinates
version=1
nRows=38
nColumns=12
inDegrees=yes

Units are S.I. units (second, meters, Newtons, ...)
Angles are in degrees

endheader
time	SC_y	SC_z	SC_x	AC_y	AC_z	AC_x	GH_y	GH_z	GH_yy	EL_x	PS_y
       0.0              -59.57          30.77          69.94          34.21          8.058         -4.299          21.97         -1.493         -71.82          41.57          74.06
   0.01605              -59.57          30.77          69.93          34.22          8.058         -4.299          21.95         -1.481         -71.83          41.58          74.06
   0.03209              -59.57          30.77          69.93          34.22          8.058         -4.298          21.92         -1.468         -71.84          41.59          74.07
   0.04814              -59.57          30.77          69.93          34.23          8.058         -4.297          21.89         -1.454         -71.85           41.6          74.07
   0.06419              -59.57          30.76          69.93          34.23          8.058         -4.296          21.86         -1.439         -71.86          41.62          74.07
   0.08024              -59.57          30.76          69.92          34.24          8.058         -4.295          21.83         -1.424         -71.87          41.63          74.07
   0.09628              -59.57          30.76          69.92          34.25          8.057         -4.294          21.79         -1.407         -71.88          41.64          74.07
    0.1123              -59.56          30.75          69.92          34.25          8.057         -4.293          21.76         -1.389          -71.9          41.66          74.08
    0.1284              -59.56          30.75          69.92          34.26          8.057         -4.292          21.72          -1.37         -71.91          41.67          74.08
    0.1444              -59.56          30.75          69.91          34.27          8.057          -4.29          21.67         -1.349         -71.93          41.69          74.08
    0.1605              -59.56          30.74          69.91          34.28          8.057         -4.289          21.63         -1.327         -71.94          41.71          74.08
    0.1765              -59.56          30.74           69.9          34.29          8.057         -4.287          21.58         -1.303         -71.96          41.73          74.09
    0.1926              -59.55          30.73           69.9           34.3          8.057         -4.286          21.53         -1.277         -71.98          41.75          74.09
    0.2086              -59.55          30.73           69.9          34.31          8.057         -4.284          21.47         -1.249          -72.0          41.77          74.09
    0.2247              -59.55          30.72          69.89          34.32          8.056         -4.282          21.41         -1.219         -72.02          41.79           74.1
    0.2407              -59.55          30.71          69.88          34.33          8.056          -4.28          21.34         -1.186         -72.04          41.82           74.1
    0.2568              -59.54          30.71          69.88          34.35          8.056         -4.278          21.27         -1.151         -72.07          41.85          74.11
    0.2728              -59.54           30.7          69.87          34.36          8.056         -4.275          21.19         -1.112          -72.1          41.88          74.11
    0.2889              -59.54          30.69          69.87          34.38          8.055         -4.273           21.1          -1.07         -72.13          41.91          74.12
    0.3049              -59.53          30.68          69.86           34.4          8.055          -4.27          21.01         -1.024         -72.16          41.95          74.12
    0.3209              -59.53          30.67          69.85          34.42          8.055         -4.266          20.91         -0.973          -72.2          41.99          74.13
     0.337              -59.52          30.66          69.84          34.44          8.054         -4.263          20.79        -0.9172         -72.24          42.03          74.14
     0.353              -59.52          30.65          69.83          34.46          8.054         -4.259          20.67        -0.8555         -72.29          42.08          74.15
    0.3691              -59.51          30.64          69.82          34.49          8.054         -4.255          20.53        -0.7871         -72.34          42.14          74.15
    0.3851              -59.51          30.62          69.81          34.52          8.053          -4.25          20.37        -0.7111         -72.39           42.2          74.16
    0.4012               -59.5          30.61          69.79          34.55          8.053         -4.244           20.2        -0.6263         -72.46          42.27          74.17
    0.4172              -59.49          30.59          69.77          34.59          8.052         -4.238           20.0        -0.5313         -72.53          42.34          74.19
    0.4333              -59.48          30.57          69.76          34.63          8.051         -4.231          19.78        -0.4244         -72.61          42.43           74.2
    0.4493              -59.47          30.55          69.74          34.68          8.051         -4.224          19.54        -0.3037         -72.69          42.53          74.22
    0.4654              -59.46          30.52          69.71          34.74           8.05         -4.215          19.26        -0.1666          -72.8          42.64          74.23
    0.4814              -59.45          30.49          69.69           34.8          8.049         -4.205          18.94       -0.01007         -72.91          42.76          74.25
    0.4975              -59.43          30.46          69.66          34.87          8.048         -4.194          18.57         0.1695         -73.04          42.91          74.28
    0.5135              -59.41          30.42          69.62          34.95          8.046         -4.181          18.15         0.3769         -73.19          43.07           74.3
    0.5296              -59.39          30.37          69.58          35.04          8.045         -4.165          17.65         0.6178         -73.37          43.27          74.34
    0.5456              -59.37          30.32          69.54          35.15          8.043         -4.147          17.08         0.8997         -73.58          43.49          74.37
    0.5617              -59.34          30.25          69.48          35.28          8.041         -4.126           16.4          1.232         -73.82          43.76          74.42
    0.5777              -59.31          30.18          69.41          35.44          8.039         -4.101          15.59          1.627         -74.11          44.07          74.47
    0.5938              -59.26          30.09          69.33          35.63          8.036         -4.071          14.62            2.1         -74.46          44.45          74.53
